# xmcd
#
# Track frame offsets:
# 150
# 30149
# 93434
# 144316
# 159758
#
# Disc length: 4445 seconds
#
#
# Revision: 0
# Processed by: cddbd v1.5.2PL0 Copyright (c) Steve Scherf et al.
# Submitted via: FreeRIP 2.96 
#
DISCID=29115b05
DTITLE=Dorothy L. Sayers - Der Tote in der Badewanne CD5v5
DYEAR=2001
DGENRE=Speech
TTITLE0=25 - Eine richtige Erbsensuppe
TTITLE1=26 - Sir Julian
TTITLE2=27 - Der böse raue Nebel kratzte im Hals ...
TTITLE3=28 - Zurück über den Friedhof ...
TTITLE4=29 - Lieber Lord Peter ...
EXTD=gelesen von Christian Brückner
EXTT0=
EXTT1=
EXTT2=
EXTT3=
EXTT4=
PLAYORDER=
